<?xml version="1.0" encoding="UTF-8" standalone="no"?> <svg id="Layer_1" data-name="Layer 1" xmlns="http://www.w3.org/2000/svg" viewBox="0 0 48 48"><defs><style>.cls-1{fill:#47caf0;}.cls-2{fill:#20aee1;}.cls-3{fill:#1761b2;}.cls-4{fill:#0d3b8d;}.cls-5{fill:#00286f;}.cls-6{fill:#08105e;}</style></defs><rect class="cls-1" x="4" y="5" width="40" height="30" rx="4"/><path class="cls-2" d="M7,31V9a4,4,0,0,1,4-4H8A4,4,0,0,0,4,9V31a4,4,0,0,0,4,4h3A4,4,0,0,1,7,31Z"/><path class="cls-3" d="M44,30H4v1a4,4,0,0,0,4,4H40a4,4,0,0,0,4-4Z"/><path class="cls-4" d="M7,31V30H4v1a4,4,0,0,0,4,4h3A4,4,0,0,1,7,31Z"/><path class="cls-3" d="M10.667,39H37.333A2.667,2.667,0,0,1,40,41.667v0A1.333,1.333,0,0,1,38.667,43H9.333A1.333,1.333,0,0,1,8,41.667v0A2.667,2.667,0,0,1,10.667,39Z"/><path class="cls-4" d="M11,41.667A2.667,2.667,0,0,1,13.667,39h-3A2.667,2.667,0,0,0,8,41.667,1.333,1.333,0,0,0,9.333,43h3A1.333,1.333,0,0,1,11,41.667Z"/><rect class="cls-4" x="20" y="35" width="8" height="4"/><rect class="cls-5" x="20" y="35" width="3" height="4"/><path class="cls-2" d="M15.293,25.707a1,1,0,0,0,1.414-1.414L12.414,20l4.293-4.293a1,1,0,0,0-1.414-1.414l-5,5a1,1,0,0,0,0,1.414Z"/><path class="cls-2" d="M31.293,25.707a1,1,0,0,0,1.414,0l5-5a1,1,0,0,0,0-1.414l-5-5a1,1,0,0,0-1.414,1.414L35.586,20l-4.293,4.293A1,1,0,0,0,31.293,25.707Z"/><path class="cls-2" d="M20.553,26.9a1,1,0,0,0,1.342-.448l6-12a1,1,0,1,0-1.79-.894l-6,12A1,1,0,0,0,20.553,26.9Z"/><path class="cls-6" d="M40,4H8A5.006,5.006,0,0,0,3,9V31a5.006,5.006,0,0,0,5,5H19v1.906c0,.034.015.062.017.094h-8.35A3.671,3.671,0,0,0,7,41.667,2.336,2.336,0,0,0,9.333,44H38.667A2.336,2.336,0,0,0,41,41.667,3.671,3.671,0,0,0,37.333,38h-8.35c0-.032.017-.06.017-.094V36H40a5.006,5.006,0,0,0,5-5V9A5.006,5.006,0,0,0,40,4ZM8,6H40a3,3,0,0,1,3,3V29H5V9A3,3,0,0,1,8,6ZM39,41.667a.333.333,0,0,1-.333.333H9.333A.333.333,0,0,1,9,41.667,1.669,1.669,0,0,1,10.667,40H37.333A1.669,1.669,0,0,1,39,41.667ZM27.017,38H20.983c0-.032.017-.06.017-.094V36h6v1.906C27,37.94,27.015,37.968,27.017,38ZM40,34H8a3,3,0,0,1-3-3H43A3,3,0,0,1,40,34Z"/><path class="cls-6" d="M15.293,23.707a1,1,0,0,0,1.414-1.414L12.414,18l4.293-4.293a1,1,0,0,0-1.414-1.414l-5,5a1,1,0,0,0,0,1.414Z"/><path class="cls-6" d="M31.293,23.707a1,1,0,0,0,1.414,0l5-5a1,1,0,0,0,0-1.414l-5-5a1,1,0,0,0-1.414,1.414L35.586,18l-4.293,4.293A1,1,0,0,0,31.293,23.707Z"/><path class="cls-6" d="M20.553,24.9a1,1,0,0,0,1.342-.448l6-12a1,1,0,1,0-1.79-.894l-6,12A1,1,0,0,0,20.553,24.9Z"/></svg>