<?xml version="1.0" encoding="UTF-8" standalone="no"?> <svg id="Reference" xmlns="http://www.w3.org/2000/svg" viewBox="0 0 48 48"><defs><style>.cls-1{fill:#dee7f6;}.cls-2{fill:#b6cee6;}.cls-3{fill:#1c3a89;}.cls-4{fill:#02276b;}.cls-5{fill:#8f5131;}.cls-6{fill:#73382b;}.cls-7{fill:#51ce93;}.cls-8{fill:#49ad94;}.cls-9{fill:#09105a;}</style></defs><circle class="cls-1" cx="24" cy="22" r="19"/><path class="cls-2" d="M41.89,28.4A19.048,19.048,0,0,1,24,41a18.273,18.273,0,0,1-3.49-.33A18.988,18.988,0,0,1,12.72,6.72a18.956,18.956,0,0,0-1.43,20.31,10.4,10.4,0,0,1,5.62,2.17,22.495,22.495,0,0,1,24.98-.8Z"/><path class="cls-3" d="M23.412,15.77,17.588,20a1,1,0,0,0-.363,1.118l2.224,6.847a1,1,0,0,0,.951.691h7.2a1,1,0,0,0,.951-.691l2.224-6.847A1,1,0,0,0,30.412,20L24.588,15.77A1,1,0,0,0,23.412,15.77Z"/><path class="cls-4" d="M28.551,27.966l.957-2.947a22.263,22.263,0,0,0-10.152,2.662l.093.285a1,1,0,0,0,.951.691h7.2A1,1,0,0,0,28.551,27.966Z"/><path class="cls-3" d="M30.51,4.14a.284.284,0,0,1-.1.09L24.59,8.47a1.022,1.022,0,0,1-1.18,0L17.59,4.23a.284.284,0,0,1-.1-.09,19.158,19.158,0,0,1,13.02,0Z"/><path class="cls-3" d="M10.95,18.38,5.12,22.61a.3.3,0,0,1-.11.06C5,22.45,5,22.22,5,22A18.887,18.887,0,0,1,9.04,10.3a.536.536,0,0,1,.05.11l2.22,6.85A1.012,1.012,0,0,1,10.95,18.38Z"/><path class="cls-4" d="M9,18a19,19,0,0,1,.794-5.417l-.7-2.173a.536.536,0,0,0-.05-.11A18.887,18.887,0,0,0,5,22c0,.22,0,.45.01.67a.3.3,0,0,0,.11-.06l3.967-2.879C9.036,19.16,9,18.585,9,18Z"/><path class="cls-3" d="M43,22c0,.22,0,.45-.01.67a.3.3,0,0,1-.11-.06l-5.83-4.23a1.012,1.012,0,0,1-.36-1.12l2.22-6.85a.536.536,0,0,1,.05-.11A18.887,18.887,0,0,1,43,22Z"/><path class="cls-5" d="M30,29a18.46,18.46,0,0,0-14.793,7.4,1,1,0,0,0,0,1.194,18.482,18.482,0,0,0,29.586,0,1,1,0,0,0,0-1.194A18.46,18.46,0,0,0,30,29Z"/><path class="cls-6" d="M44.723,36.315a21.907,21.907,0,0,1-29.446,0c-.023.03-.048.058-.07.088a1,1,0,0,0,0,1.194,18.482,18.482,0,0,0,29.586,0,1,1,0,0,0,0-1.194C44.771,36.373,44.746,36.345,44.723,36.315Z"/><circle class="cls-7" cx="10.5" cy="37.5" r="6.5"/><path class="cls-8" d="M13.5,41a6.489,6.489,0,0,1-5.84-9.34,6.5,6.5,0,1,0,8.68,8.68A6.47,6.47,0,0,1,13.5,41Z"/><path class="cls-9" d="M19.638,28.571a1,1,0,0,0,.643-1.259l-2.106-6.5L24,16.576l5.824,4.236L28.559,24.7a1,1,0,1,0,1.9.619l1.354-4.16,4.757-2.13,5.387,3.908a17.648,17.648,0,0,1-.989,5.045,1,1,0,0,0,1.883.676,19.664,19.664,0,0,0,1.136-6.143C44,22.343,44,22.171,44,22A20.028,20.028,0,0,0,30.635,3.138,19.984,19.984,0,0,0,8.116,9.862,19.8,19.8,0,0,0,4,22c0,.171,0,.343.01.471a19.763,19.763,0,0,0,1.022,5.877,1,1,0,1,0,1.9-.635,17.828,17.828,0,0,1-.888-4.774l5.389-3.91,4.756,2.13,2.194,6.77a1,1,0,0,0,1.259.642Zm19.771-15.84a17.733,17.733,0,0,1,2.523,7.716L37.865,17.5ZM37.97,10.682l-2.094,6.467L31.118,19.28,25,14.831V9.169L30.446,5.21A17.8,17.8,0,0,1,37.97,10.682Zm-9.918-6.2L24,7.424,19.948,4.478A18.057,18.057,0,0,1,28.052,4.478Zm-10.5.732L23,9.169v5.662L16.882,19.28l-4.758-2.131L10.03,10.682A17.8,17.8,0,0,1,17.554,5.21ZM6.068,20.447a17.738,17.738,0,0,1,2.523-7.716L10.135,17.5Z"/><path class="cls-9" d="M45.278,35.038A20.15,20.15,0,0,0,30,28a19.922,19.922,0,0,0-11.021,3.306,1,1,0,1,0,1.1,1.668c.1-.068.208-.125.311-.19a14.905,14.905,0,0,1-.007,8.451.993.993,0,0,0-.987,1.722A19.9,19.9,0,0,0,30,46a20.154,20.154,0,0,0,15.281-7.041A3.042,3.042,0,0,0,45.278,35.038ZM22.169,42.2a16.675,16.675,0,0,0,0-10.4,17.952,17.952,0,0,1,15.664.007,16.679,16.679,0,0,0,0,10.4,17.91,17.91,0,0,1-15.661,0Zm21.593-4.541a18.287,18.287,0,0,1-4.155,3.555,14.921,14.921,0,0,1,0-8.425,18.267,18.267,0,0,1,4.152,3.553A1.022,1.022,0,0,1,43.762,37.657Z"/><path class="cls-9" d="M34,36H33v-.5a1,1,0,0,0-2,0V36H29v-.5a1,1,0,0,0-2,0V36H26a1,1,0,0,0,0,2h1v.5a1,1,0,0,0,2,0V38h2v.5a1,1,0,0,0,2,0V38h1a1,1,0,0,0,0-2Z"/><path class="cls-9" d="M10.5,30A7.5,7.5,0,1,0,18,37.5,7.508,7.508,0,0,0,10.5,30Zm-.435,2.022a5.447,5.447,0,0,1-5.043,5.043A5.5,5.5,0,0,1,10.065,32.022ZM5.229,39.059a7.45,7.45,0,0,0,6.824-6.832,5.517,5.517,0,0,1,3.72,3.721,7.435,7.435,0,0,0-6.826,6.825A5.518,5.518,0,0,1,5.229,39.059Zm5.706,3.919a5.451,5.451,0,0,1,5.043-5.045A5.5,5.5,0,0,1,10.935,42.978Z"/></svg>